<?xml version="1.0" encoding="UTF-8"?>
<!DOCTYPE svg PUBLIC "-//W3C//DTD SVG 1.1//EN" "http://www.w3.org/Graphics/SVG/1.1/DTD/svg11.dtd">
<svg xmlns="http://www.w3.org/2000/svg" version="1.1" width="512px" height="512px" style="shape-rendering:geometricPrecision; text-rendering:geometricPrecision; image-rendering:optimizeQuality; fill-rule:evenodd; clip-rule:evenodd" xmlns:xlink="http://www.w3.org/1999/xlink">
<g><path style="opacity:0.939" fill="#000000" d="M 264.5,-0.5 C 313.167,-0.5 361.833,-0.5 410.5,-0.5C 449.166,8.67079 471.332,33.0041 477,72.5C 477.667,194.167 477.667,315.833 477,437.5C 471.796,477.532 449.629,502.199 410.5,511.5C 328.167,511.5 245.833,511.5 163.5,511.5C 159.3,507.982 158.467,503.649 161,498.5C 161.75,497.874 162.584,497.374 163.5,497C 241.5,496.667 319.5,496.333 397.5,496C 434.17,492.662 455.337,472.828 461,436.5C 461.5,378.834 461.667,321.168 461.5,263.5C 459.473,263.338 457.473,263.505 455.5,264C 444.667,274.833 433.833,285.667 423,296.5C 423.881,316.923 414.715,330.423 395.5,337C 372.688,340.489 357.854,331.322 351,309.5C 349.079,280.751 362.579,265.917 391.5,265C 405.167,251.333 418.833,237.667 432.5,224C 435.618,222.107 438.951,220.774 442.5,220C 448.825,219.5 455.158,219.334 461.5,219.5C 461.5,216.5 461.5,213.5 461.5,210.5C 432.498,210.333 403.498,210.5 374.5,211C 370,215.5 365.5,220 361,224.5C 361.781,246.167 351.948,260 331.5,266C 313.416,268.706 299.916,262.206 291,246.5C 284.333,229.499 287.5,214.665 300.5,202C 308.82,195.919 318.153,193.252 328.5,194C 335.833,186.667 343.167,179.333 350.5,172C 353.062,169.587 356.062,167.92 359.5,167C 372.5,166.333 385.5,166.333 398.5,167C 403.752,170.086 404.752,174.253 401.5,179.5C 400.335,180.584 399.002,181.417 397.5,182C 385.404,182.04 373.404,182.707 361.5,184C 355.985,189.348 350.652,194.848 345.5,200.5C 348.473,202.806 351.14,205.473 353.5,208.5C 358.351,203.815 363.351,199.315 368.5,195C 399.498,194.5 430.498,194.333 461.5,194.5C 461.5,190.5 461.5,186.5 461.5,182.5C 448.829,182.667 436.162,182.5 423.5,182C 418.094,180.02 416.261,176.186 418,170.5C 419.167,169.333 420.333,168.167 421.5,167C 434.829,166.5 448.163,166.333 461.5,166.5C 461.5,163.5 461.5,160.5 461.5,157.5C 443.164,157.667 424.83,157.5 406.5,157C 403.363,156.399 400.363,155.399 397.5,154C 383.5,140 369.5,126 355.5,112C 333.897,112.804 320.064,102.971 314,82.5C 311.924,58.7987 322.424,44.2987 345.5,39C 372.549,39.3819 386.382,53.2153 387,80.5C 397.5,91 408,101.5 418.5,112C 432.829,112.5 447.163,112.667 461.5,112.5C 461.667,99.4957 461.5,86.4957 461,73.5C 454.984,38.15 434.15,18.65 398.5,15C 363.5,14.3333 328.5,14.3333 293.5,15C 270.172,16.6624 255.672,28.8291 250,51.5C 249.667,80.5 249.333,109.5 249,138.5C 246.019,171.975 229.185,195.475 198.5,209C 191.372,211.559 184.038,213.226 176.5,214C 145.127,214.038 113.794,214.704 82.5,216C 63.7384,222.098 52.905,234.932 50,254.5C 49.3333,315.167 49.3333,375.833 50,436.5C 54.1224,467.958 71.6224,487.458 102.5,495C 115.477,496.071 128.477,496.737 141.5,497C 146.768,501.829 146.768,506.663 141.5,511.5C 127.833,511.5 114.167,511.5 100.5,511.5C 61.3709,502.199 39.2042,477.532 34,437.5C 33.3333,370.5 33.3333,303.5 34,236.5C 35.7721,214.499 43.7721,195.166 58,178.5C 109.833,126.667 161.667,74.8333 213.5,23C 228.528,10.8184 245.528,2.9851 264.5,-0.5 Z M 245.5,22.5 C 239.498,30.5112 235.665,39.5112 234,49.5C 233.939,81.5269 233.273,113.527 232,145.5C 225.606,172.894 208.773,190.06 181.5,197C 149.534,198.289 117.534,198.955 85.5,199C 75.1002,200.407 65.7669,204.24 57.5,210.5C 60.6168,202.881 64.7835,195.881 70,189.5C 121.167,138.333 172.333,87.1667 223.5,36C 230.054,30.2234 237.387,25.7234 245.5,22.5 Z M 347.5,54.5 C 360.934,54.8811 368.601,61.7144 370.5,75C 366.517,93.3243 355.85,98.991 338.5,92C 328.907,83.9915 327.073,74.4915 333,63.5C 337.015,58.9464 341.848,55.9464 347.5,54.5 Z M 379.5,96.5 C 390.298,106.798 400.965,117.298 411.5,128C 428.163,128.5 444.83,128.667 461.5,128.5C 461.5,132.833 461.5,137.167 461.5,141.5C 443.073,141.974 424.74,141.474 406.5,140C 394.833,128.333 383.167,116.667 371.5,105C 374.371,102.297 377.038,99.4639 379.5,96.5 Z M 323.5,209.5 C 335.923,210.756 342.923,217.589 344.5,230C 341.531,246.647 331.864,252.98 315.5,249C 302.925,240.936 300.425,230.436 308,217.5C 312.379,213.062 317.546,210.395 323.5,209.5 Z M 444.5,235.5 C 450.167,235.5 455.833,235.5 461.5,235.5C 461.5,239.5 461.5,243.5 461.5,247.5C 456.752,247.275 452.085,247.775 447.5,249C 437,259.5 426.5,270 416,280.5C 413.833,277 411,274.167 407.5,272C 419.728,259.604 432.062,247.437 444.5,235.5 Z M 380.5,281.5 C 399.001,280.5 407.501,289.167 406,307.5C 399.097,321.699 388.597,325.199 374.5,318C 365.681,309.697 364.181,300.197 370,289.5C 372.94,285.963 376.44,283.297 380.5,281.5 Z"/></g>
<g><path style="opacity:0.93" fill="#000000" d="M 97.5,263.5 C 147.834,263.333 198.168,263.5 248.5,264C 256.067,268.58 256.401,273.58 249.5,279C 198.167,279.667 146.833,279.667 95.5,279C 89.7312,272.8 90.3979,267.633 97.5,263.5 Z"/></g>
<g><path style="opacity:0.933" fill="#000000" d="M 98.5,302.5 C 169.167,302.333 239.834,302.5 310.5,303C 315.294,303.463 317.628,306.13 317.5,311C 317.699,314.274 316.366,316.607 313.5,318C 240.833,318.667 168.167,318.667 95.5,318C 91.018,314.295 90.3513,309.962 93.5,305C 95.3146,304.243 96.9812,303.41 98.5,302.5 Z"/></g>
<g><path style="opacity:0.933" fill="#000000" d="M 95.5,342.5 C 168.167,342.333 240.834,342.5 313.5,343C 316.366,344.393 317.699,346.726 317.5,350C 317.666,354.348 315.666,357.015 311.5,358C 240.167,358.667 168.833,358.667 97.5,358C 90.2807,353.834 89.614,348.668 95.5,342.5 Z"/></g>
<g><path style="opacity:0.933" fill="#000000" d="M 96.5,381.5 C 168.834,381.333 241.167,381.5 313.5,382C 317.277,384.955 318.443,388.788 317,393.5C 315.786,395.049 314.286,396.215 312.5,397C 240.5,397.667 168.5,397.667 96.5,397C 91.4648,393.987 90.2981,389.82 93,384.5C 94.1451,383.364 95.3117,382.364 96.5,381.5 Z"/></g>
<g><path style="opacity:0.927" fill="#000000" d="M 320.5,433.5 C 348.502,433.333 376.502,433.5 404.5,434C 408.753,437.42 409.587,441.587 407,446.5C 405.829,447.893 404.329,448.727 402.5,449C 375.5,449.667 348.5,449.667 321.5,449C 314.335,444.093 314.002,438.926 320.5,433.5 Z"/></g>
</svg>
